<?xml version="1.0" encoding="UTF-8"?>
<svg id="Layer_1" data-name="Layer 1" xmlns="http://www.w3.org/2000/svg" viewBox="0 0 629.97 540.65">
  <path d="m392.73,539.35c13.85-7.9,28.02-15.98,43.01-24.53-20.03-18.88-38.97-36.74-59.04-55.65-29.44,16.66-63.64,20.95-99.21,8.52-24.88-8.7-44.85-24.13-59.24-46.33-29.68-45.8-25.01-104.86,11.06-144.66,34.97-38.59,96.9-53.33,151.27-20.9,17.06-17.77,33.85-35.25,51.36-53.48,66.06,112.42,131.74,224.2,198.03,337.03h-237.24Z" style="fill: #231f20;"/>
  <path d="m245.9,540.65H0c40.38-69.76,80.34-138.81,120.95-208.96-5.23,98.17,36.07,166.98,124.95,208.96Z" style="fill: #231f20;"/>
  <path d="m424.97,190.46c-77.53-44.28-152.36-41.06-227.18,8.43C236.51,132.07,274.37,66.74,313.05,0c37.68,64.12,74.5,126.78,111.92,190.46Z" style="fill: #231f20;"/>
</svg>